#tb 0: 1/25
0,          0,          0,        1,   599040, 0xd9b73cbe
0,          1,          1,        1,   599040, 0xd9b73cbe
0,          2,          2,        1,   599040, 0xe4e5dd7c
0,          3,          3,        1,   599040, 0xa7333d7e
0,          4,          4,        1,   599040, 0x6b82552b
0,          5,          5,        1,   599040, 0x4f02e2a4
0,          6,          6,        1,   599040, 0x8fdcc50a
0,          7,          7,        1,   599040, 0x2481542d
0,          8,          8,        1,   599040, 0x73d0dfad
0,          9,          9,        1,   599040, 0x842b8cd2
0,         10,         10,        1,   599040, 0x87b3a3b2
0,         11,         11,        1,   599040, 0xe4decf78
0,         12,         12,        1,   599040, 0xfba7dd51
0,         13,         13,        1,   599040, 0x3dc1e85c
0,         14,         14,        1,   599040, 0xea8a4987
0,         15,         15,        1,   599040, 0xa3cc5c8c
0,         16,         16,        1,   599040, 0x10a09cd8
0,         17,         17,        1,   599040, 0x6739c5f7
0,         18,         18,        1,   599040, 0x819af14a
0,         19,         19,        1,   599040, 0xe9d65a5c
0,         20,         20,        1,   599040, 0x09def54e
0,         21,         21,        1,   599040, 0x8595aa5d
0,         22,         22,        1,   599040, 0xc3f134d7
0,         23,         23,        1,   599040, 0xdac9496a
0,         24,         24,        1,   599040, 0x760f0897
0,         25,         25,        1,   599040, 0x8daddaf5
0,         26,         26,        1,   599040, 0xed313947
0,         27,         27,        1,   599040, 0xc875ed4d
0,         28,         28,        1,   599040, 0xdb5d0b3b
0,         29,         29,        1,   599040, 0x7cbc0e6a
0,         30,         30,        1,   599040, 0x193bbc9f
0,         31,         31,        1,   599040, 0x4f20d599
0,         32,         32,        1,   599040, 0x09e545e8
0,         33,         33,        1,   599040, 0x0637d524
0,         34,         34,        1,   599040, 0x11a3bd85
0,         35,         35,        1,   599040, 0x304155ce
0,         36,         36,        1,   599040, 0x6636291b
0,         37,         37,        1,   599040, 0xc4039e80
0,         38,         38,        1,   599040, 0xd73ca756
0,         39,         39,        1,   599040, 0x96a68426
0,         40,         40,        1,   599040, 0xd945391c
0,         41,         41,        1,   599040, 0x95a83264
0,         42,         42,        1,   599040, 0x6356a243
0,         43,         43,        1,   599040, 0xb9b8973e
0,         44,         44,        1,   599040, 0xf361d0d9
0,         45,         45,        1,   599040, 0x2783b0e2
0,         46,         46,        1,   599040, 0x870ac424
0,         47,         47,        1,   599040, 0xa8397c01
0,         48,         48,        1,   599040, 0xf1bc2ac0
0,         49,         49,        1,   599040, 0x82fbb428
